<?xml version="1.0" standalone="no"?>
<!DOCTYPE svg PUBLIC "-//W3C//DTD SVG 20010904//EN"
 "http://www.w3.org/TR/2001/REC-SVG-20010904/DTD/svg10.dtd">
<svg version="1.0" xmlns="http://www.w3.org/2000/svg"
 width="700.000000pt" height="700.000000pt" viewBox="0 0 700.000000 700.000000"
 preserveAspectRatio="xMidYMid meet">
<metadata>
Created by potrace 1.11, written by Peter Selinger 2001-2013
</metadata>
<g transform="translate(0.000000,700.000000) scale(0.100000,-0.100000)"
fill="#000000" stroke="none">
<path d="M3317 5764 c-1 -1 -54 -4 -117 -8 -63 -3 -124 -8 -135 -10 -11 -2
-49 -7 -85 -11 -36 -3 -72 -8 -80 -10 -8 -2 -31 -7 -50 -10 -63 -11 -207 -44
-234 -54 -14 -6 -26 -9 -26 -6 0 6 -214 -68 -305 -105 -93 -38 -236 -107 -315
-151 -69 -39 -298 -191 -325 -216 -11 -10 -30 -26 -43 -34 -40 -29 -164 -142
-243 -224 -167 -172 -322 -390 -429 -604 -33 -66 -60 -123 -60 -126 0 -3 -9
-24 -19 -48 -43 -94 -119 -360 -136 -474 -23 -165 -28 -218 -29 -345 l-1 -127
-39 -41 c-55 -60 -103 -143 -116 -202 -6 -33 -10 -208 -10 -479 0 -455 1 -466
51 -555 10 -19 19 -41 19 -49 0 -8 4 -15 9 -15 5 0 35 -25 68 -56 68 -65 188
-147 288 -197 334 -166 865 -294 1430 -343 44 -3 91 -8 105 -10 47 -5 395 -17
510 -17 136 0 491 12 499 17 3 2 49 7 101 10 273 18 626 77 908 151 381 100
646 225 813 382 36 35 69 60 72 56 4 -3 9 3 13 13 3 10 20 51 37 89 l32 70 0
466 0 465 -38 78 c-28 55 -59 97 -112 150 -43 44 -75 85 -79 102 -19 88 -46
254 -51 314 -6 68 -6 330 0 375 2 22 7 60 10 85 8 66 25 158 39 215 l13 50 32
-65 c49 -99 118 -179 209 -242 55 -38 158 -86 201 -93 19 -3 38 -8 43 -11 21
-13 197 -6 263 11 166 42 315 158 402 315 70 124 91 310 52 451 -19 70 -67
172 -99 213 -85 107 -188 184 -296 221 -75 26 -82 27 -188 31 -173 7 -317 -45
-438 -156 l-63 -57 -85 80 c-47 44 -101 91 -120 106 -19 14 -55 42 -80 62
-298 240 -797 459 -1190 523 -19 3 -44 8 -55 10 -12 2 -48 7 -80 11 -33 4 -73
9 -90 11 -16 2 -84 7 -150 10 -66 3 -139 6 -163 8 -23 1 -43 1 -45 0z"/>
</g>
</svg>
